<svg width="230" height="239" viewBox="0 0 230 239" fill="none" xmlns="http://www.w3.org/2000/svg">
<g clip-path="url(#clip0_32_44)">
<path d="M229.014 15.6932L16.5474 0.633057L0.780166 223.075L213.247 238.135L229.014 15.6932Z" fill="white"/>
<path d="M35.2517 15.9315L28.8411 15.4771L28.3654 22.1887L34.776 22.6431L35.2517 15.9315Z" fill="black"/>
<path d="M41.6624 16.3859L35.2517 15.9315L34.776 22.6431L41.1866 23.0975L41.6624 16.3859Z" fill="black"/>
<path d="M48.073 16.8403L41.6624 16.3859L41.1866 23.0975L47.5973 23.5519L48.073 16.8403Z" fill="black"/>
<path d="M54.4837 17.2947L48.073 16.8403L47.5973 23.5519L54.0079 24.0063L54.4837 17.2947Z" fill="black"/>
<path d="M60.8943 17.7491L54.4837 17.2947L54.0079 24.0063L60.4186 24.4607L60.8943 17.7491Z" fill="black"/>
<path d="M67.3049 18.2035L60.8943 17.7491L60.4186 24.4607L66.8292 24.9151L67.3049 18.2035Z" fill="black"/>
<path d="M73.7156 18.6579L67.3049 18.2035L66.8292 24.9151L73.2398 25.3695L73.7156 18.6579Z" fill="black"/>
<path d="M86.5369 19.5667L80.1262 19.1123L79.6505 25.8239L86.0611 26.2783L86.5369 19.5667Z" fill="black"/>
<path d="M92.9475 20.0211L86.5369 19.5667L86.0611 26.2783L92.4718 26.7327L92.9475 20.0211Z" fill="black"/>
<path d="M105.769 20.9299L99.3581 20.4755L98.8824 27.1871L105.293 27.6415L105.769 20.9299Z" fill="black"/>
<path d="M125.001 22.2931L118.59 21.8387L118.114 28.5503L124.525 29.0047L125.001 22.2931Z" fill="black"/>
<path d="M144.233 23.6563L137.822 23.2019L137.346 29.9135L143.757 30.3679L144.233 23.6563Z" fill="black"/>
<path d="M150.643 24.1107L144.233 23.6563L143.757 30.3679L150.168 30.8223L150.643 24.1107Z" fill="black"/>
<path d="M157.054 24.5651L150.643 24.1107L150.168 30.8223L156.578 31.2767L157.054 24.5651Z" fill="black"/>
<path d="M163.465 25.0195L157.054 24.5651L156.578 31.2767L162.989 31.7311L163.465 25.0195Z" fill="black"/>
<path d="M176.286 25.9283L169.875 25.4739L169.399 32.1855L175.81 32.6399L176.286 25.9283Z" fill="black"/>
<path d="M182.696 26.3827L176.286 25.9283L175.81 32.6399L182.221 33.0943L182.696 26.3827Z" fill="black"/>
<path d="M189.107 26.8371L182.696 26.3827L182.221 33.0943L188.631 33.5487L189.107 26.8371Z" fill="black"/>
<path d="M195.518 27.2915L189.107 26.8371L188.631 33.5487L195.042 34.0031L195.518 27.2915Z" fill="black"/>
<path d="M201.928 27.7459L195.518 27.2915L195.042 34.0031L201.453 34.4575L201.928 27.7459Z" fill="black"/>
<path d="M208.339 28.2003L201.928 27.7459L201.453 34.4575L207.863 34.9119L208.339 28.2003Z" fill="black"/>
<path d="M214.75 28.6547L208.339 28.2003L207.863 34.9119L214.274 35.3663L214.75 28.6547Z" fill="black"/>
<path d="M34.776 22.6431L28.3654 22.1887L27.8896 28.9003L34.3003 29.3547L34.776 22.6431Z" fill="black"/>
<path d="M73.2398 25.3695L66.8292 24.9151L66.3535 31.6267L72.7641 32.0811L73.2398 25.3695Z" fill="black"/>
<path d="M92.4718 26.7327L86.0611 26.2783L85.5854 32.9899L91.996 33.4443L92.4718 26.7327Z" fill="black"/>
<path d="M98.8824 27.1871L92.4718 26.7327L91.996 33.4443L98.4067 33.8987L98.8824 27.1871Z" fill="black"/>
<path d="M105.293 27.6415L98.8824 27.1871L98.4067 33.8987L104.817 34.3531L105.293 27.6415Z" fill="black"/>
<path d="M111.704 28.0959L105.293 27.6415L104.817 34.3531L111.228 34.8075L111.704 28.0959Z" fill="black"/>
<path d="M118.114 28.5503L111.704 28.0959L111.228 34.8075L117.639 35.2619L118.114 28.5503Z" fill="black"/>
<path d="M130.936 29.4591L124.525 29.0047L124.049 35.7163L130.46 36.1707L130.936 29.4591Z" fill="black"/>
<path d="M137.346 29.9135L130.936 29.4591L130.46 36.1707L136.871 36.6251L137.346 29.9135Z" fill="black"/>
<path d="M175.81 32.6399L169.399 32.1855L168.924 38.8971L175.334 39.3515L175.81 32.6399Z" fill="black"/>
<path d="M214.274 35.3663L207.863 34.9119L207.388 41.6235L213.798 42.0779L214.274 35.3663Z" fill="black"/>
<path d="M34.3003 29.3547L27.8896 28.9003L27.4139 35.6119L33.8245 36.0663L34.3003 29.3547Z" fill="black"/>
<path d="M47.1215 30.2635L40.7109 29.8091L40.2352 36.5207L46.6458 36.9751L47.1215 30.2635Z" fill="black"/>
<path d="M53.5322 30.7179L47.1215 30.2635L46.6458 36.9751L53.0565 37.4295L53.5322 30.7179Z" fill="black"/>
<path d="M59.9428 31.1723L53.5322 30.7179L53.0565 37.4295L59.4671 37.8839L59.9428 31.1723Z" fill="black"/>
<path d="M72.7641 32.0811L66.3535 31.6267L65.8777 38.3383L72.2884 38.7927L72.7641 32.0811Z" fill="black"/>
<path d="M85.5854 32.9899L79.1747 32.5355L78.699 39.2471L85.1097 39.7015L85.5854 32.9899Z" fill="black"/>
<path d="M91.996 33.4443L85.5854 32.9899L85.1097 39.7015L91.5203 40.1559L91.996 33.4443Z" fill="black"/>
<path d="M111.228 34.8075L104.817 34.3531L104.342 41.0647L110.752 41.5191L111.228 34.8075Z" fill="black"/>
<path d="M124.049 35.7163L117.639 35.2619L117.163 41.9735L123.573 42.4279L124.049 35.7163Z" fill="black"/>
<path d="M130.46 36.1707L124.049 35.7163L123.573 42.4279L129.984 42.8823L130.46 36.1707Z" fill="black"/>
<path d="M143.281 37.0795L136.871 36.6251L136.395 43.3367L142.805 43.7911L143.281 37.0795Z" fill="black"/>
<path d="M156.102 37.9883L149.692 37.5339L149.216 44.2455L155.627 44.6999L156.102 37.9883Z" fill="black"/>
<path d="M175.334 39.3515L168.924 38.8971L168.448 45.6087L174.859 46.0631L175.334 39.3515Z" fill="black"/>
<path d="M188.156 40.2603L181.745 39.8059L181.269 46.5175L187.68 46.9719L188.156 40.2603Z" fill="black"/>
<path d="M194.566 40.7147L188.156 40.2603L187.68 46.9719L194.091 47.4263L194.566 40.7147Z" fill="black"/>
<path d="M200.977 41.1691L194.566 40.7147L194.091 47.4263L200.501 47.8807L200.977 41.1691Z" fill="black"/>
<path d="M213.798 42.0779L207.388 41.6235L206.912 48.3351L213.322 48.7895L213.798 42.0779Z" fill="black"/>
<path d="M33.8245 36.0663L27.4139 35.6119L26.9382 42.3235L33.3488 42.7779L33.8245 36.0663Z" fill="black"/>
<path d="M46.6458 36.9751L40.2352 36.5207L39.7594 43.2323L46.1701 43.6867L46.6458 36.9751Z" fill="black"/>
<path d="M53.0565 37.4295L46.6458 36.9751L46.1701 43.6867L52.5807 44.1411L53.0565 37.4295Z" fill="black"/>
<path d="M59.4671 37.8839L53.0565 37.4295L52.5807 44.1411L58.9914 44.5955L59.4671 37.8839Z" fill="black"/>
<path d="M72.2884 38.7927L65.8777 38.3383L65.402 45.0499L71.8126 45.5043L72.2884 38.7927Z" fill="black"/>
<path d="M85.1097 39.7015L78.699 39.2471L78.2233 45.9587L84.6339 46.4131L85.1097 39.7015Z" fill="black"/>
<path d="M91.5203 40.1559L85.1097 39.7015L84.6339 46.4131L91.0446 46.8675L91.5203 40.1559Z" fill="black"/>
<path d="M97.9309 40.6103L91.5203 40.1559L91.0446 46.8675L97.4552 47.3219L97.9309 40.6103Z" fill="black"/>
<path d="M104.342 41.0647L97.9309 40.6103L97.4552 47.3219L103.866 47.7763L104.342 41.0647Z" fill="black"/>
<path d="M110.752 41.5191L104.342 41.0647L103.866 47.7763L110.276 48.2307L110.752 41.5191Z" fill="black"/>
<path d="M117.163 41.9735L110.752 41.5191L110.276 48.2307L116.687 48.6851L117.163 41.9735Z" fill="black"/>
<path d="M123.573 42.4279L117.163 41.9735L116.687 48.6851L123.098 49.1395L123.573 42.4279Z" fill="black"/>
<path d="M129.984 42.8823L123.573 42.4279L123.098 49.1395L129.508 49.5939L129.984 42.8823Z" fill="black"/>
<path d="M136.395 43.3367L129.984 42.8823L129.508 49.5939L135.919 50.0483L136.395 43.3367Z" fill="black"/>
<path d="M155.627 44.6999L149.216 44.2455L148.74 50.9571L155.151 51.4115L155.627 44.6999Z" fill="black"/>
<path d="M174.859 46.0631L168.448 45.6087L167.972 52.3203L174.383 52.7747L174.859 46.0631Z" fill="black"/>
<path d="M187.68 46.9719L181.269 46.5175L180.794 53.2291L187.204 53.6835L187.68 46.9719Z" fill="black"/>
<path d="M194.091 47.4263L187.68 46.9719L187.204 53.6835L193.615 54.1379L194.091 47.4263Z" fill="black"/>
<path d="M200.501 47.8807L194.091 47.4263L193.615 54.1379L200.025 54.5923L200.501 47.8807Z" fill="black"/>
<path d="M213.322 48.7895L206.912 48.3351L206.436 55.0467L212.847 55.5011L213.322 48.7895Z" fill="black"/>
<path d="M33.3488 42.7779L26.9382 42.3235L26.4624 49.0351L32.8731 49.4895L33.3488 42.7779Z" fill="black"/>
<path d="M46.1701 43.6867L39.7594 43.2323L39.2837 49.9439L45.6943 50.3983L46.1701 43.6867Z" fill="black"/>
<path d="M52.5807 44.1411L46.1701 43.6867L45.6943 50.3983L52.105 50.8527L52.5807 44.1411Z" fill="black"/>
<path d="M58.9914 44.5955L52.5807 44.1411L52.105 50.8527L58.5156 51.3071L58.9914 44.5955Z" fill="black"/>
<path d="M71.8126 45.5043L65.402 45.0499L64.9263 51.7615L71.3369 52.2159L71.8126 45.5043Z" fill="black"/>
<path d="M84.6339 46.4131L78.2233 45.9587L77.7475 52.6703L84.1582 53.1247L84.6339 46.4131Z" fill="black"/>
<path d="M91.0446 46.8675L84.6339 46.4131L84.1582 53.1247L90.5688 53.5791L91.0446 46.8675Z" fill="black"/>
<path d="M97.4552 47.3219L91.0446 46.8675L90.5688 53.5791L96.9795 54.0335L97.4552 47.3219Z" fill="black"/>
<path d="M135.919 50.0483L129.508 49.5939L129.033 56.3055L135.443 56.7599L135.919 50.0483Z" fill="black"/>
<path d="M142.33 50.5027L135.919 50.0483L135.443 56.7599L141.854 57.2143L142.33 50.5027Z" fill="black"/>
<path d="M174.383 52.7747L167.972 52.3203L167.497 59.0319L173.907 59.4863L174.383 52.7747Z" fill="black"/>
<path d="M187.204 53.6835L180.794 53.2291L180.318 59.9407L186.728 60.3951L187.204 53.6835Z" fill="black"/>
<path d="M193.615 54.1379L187.204 53.6835L186.728 60.3951L193.139 60.8495L193.615 54.1379Z" fill="black"/>
<path d="M200.025 54.5923L193.615 54.1379L193.139 60.8495L199.55 61.3039L200.025 54.5923Z" fill="black"/>
<path d="M212.847 55.5011L206.436 55.0467L205.96 61.7583L212.371 62.2127L212.847 55.5011Z" fill="black"/>
<path d="M32.8731 49.4895L26.4624 49.0351L25.9867 55.7467L32.3973 56.2011L32.8731 49.4895Z" fill="black"/>
<path d="M71.3369 52.2159L64.9263 51.7615L64.4505 58.4731L70.8612 58.9275L71.3369 52.2159Z" fill="black"/>
<path d="M84.1582 53.1247L77.7475 52.6703L77.2718 59.3819L83.6825 59.8363L84.1582 53.1247Z" fill="black"/>
<path d="M90.5688 53.5791L84.1582 53.1247L83.6825 59.8363L90.0931 60.2907L90.5688 53.5791Z" fill="black"/>
<path d="M103.39 54.4879L96.9795 54.0335L96.5037 60.7451L102.914 61.1995L103.39 54.4879Z" fill="black"/>
<path d="M109.801 54.9423L103.39 54.4879L102.914 61.1995L109.325 61.6539L109.801 54.9423Z" fill="black"/>
<path d="M129.033 56.3055L122.622 55.8511L122.146 62.5627L128.557 63.0171L129.033 56.3055Z" fill="black"/>
<path d="M135.443 56.7599L129.033 56.3055L128.557 63.0171L134.968 63.4715L135.443 56.7599Z" fill="black"/>
<path d="M148.265 57.6687L141.854 57.2143L141.378 63.9259L147.789 64.3803L148.265 57.6687Z" fill="black"/>
<path d="M154.675 58.1231L148.265 57.6687L147.789 64.3803L154.199 64.8347L154.675 58.1231Z" fill="black"/>
<path d="M173.907 59.4863L167.497 59.0319L167.021 65.7435L173.431 66.1979L173.907 59.4863Z" fill="black"/>
<path d="M212.371 62.2127L205.96 61.7583L205.485 68.4699L211.895 68.9243L212.371 62.2127Z" fill="black"/>
<path d="M32.3973 56.2011L25.9867 55.7467L25.511 62.4583L31.9216 62.9127L32.3973 56.2011Z" fill="black"/>
<path d="M38.808 56.6555L32.3973 56.2011L31.9216 62.9127L38.3322 63.3671L38.808 56.6555Z" fill="black"/>
<path d="M45.2186 57.1099L38.808 56.6555L38.3322 63.3671L44.7429 63.8215L45.2186 57.1099Z" fill="black"/>
<path d="M51.6293 57.5643L45.2186 57.1099L44.7429 63.8215L51.1535 64.2759L51.6293 57.5643Z" fill="black"/>
<path d="M58.0399 58.0187L51.6293 57.5643L51.1535 64.2759L57.5642 64.7303L58.0399 58.0187Z" fill="black"/>
<path d="M64.4505 58.4731L58.0399 58.0187L57.5642 64.7303L63.9748 65.1847L64.4505 58.4731Z" fill="black"/>
<path d="M70.8612 58.9275L64.4505 58.4731L63.9748 65.1847L70.3854 65.6391L70.8612 58.9275Z" fill="black"/>
<path d="M83.6825 59.8363L77.2718 59.3819L76.7961 66.0935L83.2067 66.5479L83.6825 59.8363Z" fill="black"/>
<path d="M96.5037 60.7451L90.0931 60.2907L89.6174 67.0023L96.028 67.4567L96.5037 60.7451Z" fill="black"/>
<path d="M109.325 61.6539L102.914 61.1995L102.439 67.9111L108.849 68.3655L109.325 61.6539Z" fill="black"/>
<path d="M122.146 62.5627L115.736 62.1083L115.26 68.8199L121.671 69.2743L122.146 62.5627Z" fill="black"/>
<path d="M134.968 63.4715L128.557 63.0171L128.081 69.7287L134.492 70.1831L134.968 63.4715Z" fill="black"/>
<path d="M147.789 64.3803L141.378 63.9259L140.902 70.6375L147.313 71.0919L147.789 64.3803Z" fill="black"/>
<path d="M160.61 65.2891L154.199 64.8347L153.724 71.5463L160.134 72.0007L160.61 65.2891Z" fill="black"/>
<path d="M173.431 66.1979L167.021 65.7435L166.545 72.4551L172.956 72.9095L173.431 66.1979Z" fill="black"/>
<path d="M179.842 66.6523L173.431 66.1979L172.956 72.9095L179.366 73.3639L179.842 66.6523Z" fill="black"/>
<path d="M186.253 67.1067L179.842 66.6523L179.366 73.3639L185.777 73.8183L186.253 67.1067Z" fill="black"/>
<path d="M192.663 67.5611L186.253 67.1067L185.777 73.8183L192.188 74.2727L192.663 67.5611Z" fill="black"/>
<path d="M199.074 68.0155L192.663 67.5611L192.188 74.2727L198.598 74.7271L199.074 68.0155Z" fill="black"/>
<path d="M205.485 68.4699L199.074 68.0155L198.598 74.7271L205.009 75.1815L205.485 68.4699Z" fill="black"/>
<path d="M211.895 68.9243L205.485 68.4699L205.009 75.1815L211.42 75.6359L211.895 68.9243Z" fill="black"/>
<path d="M102.439 67.9111L96.028 67.4567L95.5523 74.1683L101.963 74.6227L102.439 67.9111Z" fill="black"/>
<path d="M115.26 68.8199L108.849 68.3655L108.374 75.0771L114.784 75.5315L115.26 68.8199Z" fill="black"/>
<path d="M128.081 69.7287L121.671 69.2743L121.195 75.9859L127.605 76.4403L128.081 69.7287Z" fill="black"/>
<path d="M134.492 70.1831L128.081 69.7287L127.605 76.4403L134.016 76.8947L134.492 70.1831Z" fill="black"/>
<path d="M140.902 70.6375L134.492 70.1831L134.016 76.8947L140.427 77.3491L140.902 70.6375Z" fill="black"/>
<path d="M147.313 71.0919L140.902 70.6375L140.427 77.3491L146.837 77.8035L147.313 71.0919Z" fill="black"/>
<path d="M160.134 72.0007L153.724 71.5463L153.248 78.2579L159.659 78.7123L160.134 72.0007Z" fill="black"/>
<path d="M44.2671 70.5331L37.8565 70.0787L37.3808 76.7903L43.7914 77.2447L44.2671 70.5331Z" fill="black"/>
<path d="M50.6778 70.9875L44.2671 70.5331L43.7914 77.2447L50.202 77.6991L50.6778 70.9875Z" fill="black"/>
<path d="M57.0884 71.4419L50.6778 70.9875L50.202 77.6991L56.6127 78.1535L57.0884 71.4419Z" fill="black"/>
<path d="M63.4991 71.8963L57.0884 71.4419L56.6127 78.1535L63.0233 78.6079L63.4991 71.8963Z" fill="black"/>
<path d="M69.9097 72.3507L63.4991 71.8963L63.0233 78.6079L69.434 79.0623L69.9097 72.3507Z" fill="black"/>
<path d="M76.3203 72.8051L69.9097 72.3507L69.434 79.0623L75.8446 79.5167L76.3203 72.8051Z" fill="black"/>
<path d="M95.5523 74.1683L89.1416 73.7139L88.6659 80.4255L95.0765 80.8799L95.5523 74.1683Z" fill="black"/>
<path d="M101.963 74.6227L95.5523 74.1683L95.0765 80.8799L101.487 81.3343L101.963 74.6227Z" fill="black"/>
<path d="M121.195 75.9859L114.784 75.5315L114.308 82.2431L120.719 82.6975L121.195 75.9859Z" fill="black"/>
<path d="M134.016 76.8947L127.605 76.4403L127.13 83.1519L133.54 83.6063L134.016 76.8947Z" fill="black"/>
<path d="M153.248 78.2579L146.837 77.8035L146.362 84.5152L152.772 84.9696L153.248 78.2579Z" fill="black"/>
<path d="M166.069 79.1667L159.659 78.7123L159.183 85.424L165.594 85.8784L166.069 79.1667Z" fill="black"/>
<path d="M178.891 80.0755L172.48 79.6211L172.004 86.3328L178.415 86.7872L178.891 80.0755Z" fill="black"/>
<path d="M185.301 80.53L178.891 80.0755L178.415 86.7872L184.825 87.2416L185.301 80.53Z" fill="black"/>
<path d="M191.712 80.9844L185.301 80.53L184.825 87.2416L191.236 87.696L191.712 80.9844Z" fill="black"/>
<path d="M198.122 81.4388L191.712 80.9844L191.236 87.696L197.647 88.1504L198.122 81.4388Z" fill="black"/>
<path d="M210.944 82.3476L204.533 81.8932L204.057 88.6048L210.468 89.0592L210.944 82.3476Z" fill="black"/>
<path d="M37.3808 76.7903L30.9701 76.3359L30.4944 83.0475L36.905 83.5019L37.3808 76.7903Z" fill="black"/>
<path d="M43.7914 77.2447L37.3808 76.7903L36.905 83.5019L43.3157 83.9563L43.7914 77.2447Z" fill="black"/>
<path d="M50.202 77.6991L43.7914 77.2447L43.3157 83.9563L49.7263 84.4107L50.202 77.6991Z" fill="black"/>
<path d="M63.0233 78.6079L56.6127 78.1535L56.137 84.8651L62.5476 85.3196L63.0233 78.6079Z" fill="black"/>
<path d="M82.2552 79.9711L75.8446 79.5167L75.3689 86.2284L81.7795 86.6828L82.2552 79.9711Z" fill="black"/>
<path d="M95.0765 80.8799L88.6659 80.4255L88.1902 87.1372L94.6008 87.5916L95.0765 80.8799Z" fill="black"/>
<path d="M101.487 81.3343L95.0765 80.8799L94.6008 87.5916L101.011 88.046L101.487 81.3343Z" fill="black"/>
<path d="M127.13 83.1519L120.719 82.6975L120.243 89.4092L126.654 89.8636L127.13 83.1519Z" fill="black"/>
<path d="M133.54 83.6063L127.13 83.1519L126.654 89.8636L133.065 90.318L133.54 83.6063Z" fill="black"/>
<path d="M146.362 84.5152L139.951 84.0608L139.475 90.7724L145.886 91.2268L146.362 84.5152Z" fill="black"/>
<path d="M152.772 84.9696L146.362 84.5152L145.886 91.2268L152.297 91.6812L152.772 84.9696Z" fill="black"/>
<path d="M165.594 85.8784L159.183 85.424L158.707 92.1356L165.118 92.59L165.594 85.8784Z" fill="black"/>
<path d="M36.905 83.5019L30.4944 83.0475L30.0187 89.7592L36.4293 90.2136L36.905 83.5019Z" fill="black"/>
<path d="M43.3157 83.9563L36.905 83.5019L36.4293 90.2136L42.8399 90.668L43.3157 83.9563Z" fill="black"/>
<path d="M49.7263 84.4107L43.3157 83.9563L42.8399 90.668L49.2506 91.1224L49.7263 84.4107Z" fill="black"/>
<path d="M56.137 84.8651L49.7263 84.4107L49.2506 91.1224L55.6612 91.5768L56.137 84.8651Z" fill="black"/>
<path d="M68.9582 85.774L62.5476 85.3196L62.0719 92.0312L68.4825 92.4856L68.9582 85.774Z" fill="black"/>
<path d="M81.7795 86.6828L75.3689 86.2284L74.8931 92.94L81.3038 93.3944L81.7795 86.6828Z" fill="black"/>
<path d="M88.1902 87.1372L81.7795 86.6828L81.3038 93.3944L87.7144 93.8488L88.1902 87.1372Z" fill="black"/>
<path d="M94.6008 87.5916L88.1902 87.1372L87.7144 93.8488L94.1251 94.3032L94.6008 87.5916Z" fill="black"/>
<path d="M101.011 88.046L94.6008 87.5916L94.1251 94.3032L100.536 94.7576L101.011 88.046Z" fill="black"/>
<path d="M113.833 88.9548L107.422 88.5004L106.946 95.212L113.357 95.6664L113.833 88.9548Z" fill="black"/>
<path d="M120.243 89.4092L113.833 88.9548L113.357 95.6664L119.768 96.1208L120.243 89.4092Z" fill="black"/>
<path d="M133.065 90.318L126.654 89.8636L126.178 96.5752L132.589 97.0296L133.065 90.318Z" fill="black"/>
<path d="M139.475 90.7724L133.065 90.318L132.589 97.0296L139 97.484L139.475 90.7724Z" fill="black"/>
<path d="M152.297 91.6812L145.886 91.2268L145.41 97.9384L151.821 98.3928L152.297 91.6812Z" fill="black"/>
<path d="M158.707 92.1356L152.297 91.6812L151.821 98.3928L158.231 98.8472L158.707 92.1356Z" fill="black"/>
<path d="M165.118 92.59L158.707 92.1356L158.231 98.8472L164.642 99.3016L165.118 92.59Z" fill="black"/>
<path d="M171.528 93.0444L165.118 92.59L164.642 99.3016L171.053 99.756L171.528 93.0444Z" fill="black"/>
<path d="M177.939 93.4988L171.528 93.0444L171.053 99.756L177.463 100.21L177.939 93.4988Z" fill="black"/>
<path d="M190.76 94.4076L184.35 93.9532L183.874 100.665L190.285 101.119L190.76 94.4076Z" fill="black"/>
<path d="M197.171 94.862L190.76 94.4076L190.285 101.119L196.695 101.574L197.171 94.862Z" fill="black"/>
<path d="M203.582 95.3164L197.171 94.862L196.695 101.574L203.106 102.028L203.582 95.3164Z" fill="black"/>
<path d="M30.0187 89.7592L23.608 89.3048L23.1323 96.0164L29.5429 96.4708L30.0187 89.7592Z" fill="black"/>
<path d="M36.4293 90.2136L30.0187 89.7592L29.5429 96.4708L35.9536 96.9252L36.4293 90.2136Z" fill="black"/>
<path d="M62.0719 92.0312L55.6612 91.5768L55.1855 98.2884L61.5961 98.7428L62.0719 92.0312Z" fill="black"/>
<path d="M74.8931 92.94L68.4825 92.4856L68.0068 99.1972L74.4174 99.6516L74.8931 92.94Z" fill="black"/>
<path d="M81.3038 93.3944L74.8931 92.94L74.4174 99.6516L80.828 100.106L81.3038 93.3944Z" fill="black"/>
<path d="M100.536 94.7576L94.1251 94.3032L93.6493 101.015L100.06 101.469L100.536 94.7576Z" fill="black"/>
<path d="M106.946 95.212L100.536 94.7576L100.06 101.469L106.471 101.924L106.946 95.212Z" fill="black"/>
<path d="M119.768 96.1208L113.357 95.6664L112.881 102.378L119.292 102.832L119.768 96.1208Z" fill="black"/>
<path d="M132.589 97.0296L126.178 96.5752L125.703 103.287L132.113 103.741L132.589 97.0296Z" fill="black"/>
<path d="M164.642 99.3016L158.231 98.8472L157.756 105.559L164.166 106.013L164.642 99.3016Z" fill="black"/>
<path d="M190.285 101.119L183.874 100.665L183.398 107.376L189.809 107.831L190.285 101.119Z" fill="black"/>
<path d="M203.106 102.028L196.695 101.574L196.22 108.285L202.63 108.74L203.106 102.028Z" fill="black"/>
<path d="M209.517 102.482L203.106 102.028L202.63 108.74L209.041 109.194L209.517 102.482Z" fill="black"/>
<path d="M35.9536 96.9252L29.5429 96.4708L29.0672 103.182L35.4778 103.637L35.9536 96.9252Z" fill="black"/>
<path d="M42.3642 97.3796L35.9536 96.9252L35.4778 103.637L41.8885 104.091L42.3642 97.3796Z" fill="black"/>
<path d="M68.0068 99.1972L61.5961 98.7428L61.1204 105.454L67.531 105.909L68.0068 99.1972Z" fill="black"/>
<path d="M80.828 100.106L74.4174 99.6516L73.9417 106.363L80.3523 106.818L80.828 100.106Z" fill="black"/>
<path d="M87.2387 100.56L80.828 100.106L80.3523 106.818L86.7629 107.272L87.2387 100.56Z" fill="black"/>
<path d="M112.881 102.378L106.471 101.924L105.995 108.635L112.406 109.09L112.881 102.378Z" fill="black"/>
<path d="M125.703 103.287L119.292 102.832L118.816 109.544L125.227 109.998L125.703 103.287Z" fill="black"/>
<path d="M138.524 104.196L132.113 103.741L131.637 110.453L138.048 110.907L138.524 104.196Z" fill="black"/>
<path d="M151.345 105.104L144.934 104.65L144.459 111.362L150.869 111.816L151.345 105.104Z" fill="black"/>
<path d="M157.756 105.559L151.345 105.104L150.869 111.816L157.28 112.27L157.756 105.559Z" fill="black"/>
<path d="M170.577 106.468L164.166 106.013L163.691 112.725L170.101 113.179L170.577 106.468Z" fill="black"/>
<path d="M176.988 106.922L170.577 106.468L170.101 113.179L176.512 113.634L176.988 106.922Z" fill="black"/>
<path d="M183.398 107.376L176.988 106.922L176.512 113.634L182.923 114.088L183.398 107.376Z" fill="black"/>
<path d="M189.809 107.831L183.398 107.376L182.923 114.088L189.333 114.542L189.809 107.831Z" fill="black"/>
<path d="M202.63 108.74L196.22 108.285L195.744 114.997L202.154 115.451L202.63 108.74Z" fill="black"/>
<path d="M29.0672 103.182L22.6565 102.728L22.1808 109.44L28.5915 109.894L29.0672 103.182Z" fill="black"/>
<path d="M35.4778 103.637L29.0672 103.182L28.5915 109.894L35.0021 110.348L35.4778 103.637Z" fill="black"/>
<path d="M41.8885 104.091L35.4778 103.637L35.0021 110.348L41.4127 110.803L41.8885 104.091Z" fill="black"/>
<path d="M86.7629 107.272L80.3523 106.818L79.8766 113.529L86.2872 113.984L86.7629 107.272Z" fill="black"/>
<path d="M93.1736 107.726L86.7629 107.272L86.2872 113.984L92.6979 114.438L93.1736 107.726Z" fill="black"/>
<path d="M99.5842 108.181L93.1736 107.726L92.6979 114.438L99.1085 114.892L99.5842 108.181Z" fill="black"/>
<path d="M138.048 110.907L131.637 110.453L131.162 117.164L137.572 117.619L138.048 110.907Z" fill="black"/>
<path d="M144.459 111.362L138.048 110.907L137.572 117.619L143.983 118.073L144.459 111.362Z" fill="black"/>
<path d="M150.869 111.816L144.459 111.362L143.983 118.073L150.394 118.528L150.869 111.816Z" fill="black"/>
<path d="M208.565 115.906L202.154 115.451L201.679 122.163L208.089 122.617L208.565 115.906Z" fill="black"/>
<path d="M28.5915 109.894L22.1808 109.44L21.7051 116.151L28.1157 116.606L28.5915 109.894Z" fill="black"/>
<path d="M35.0021 110.348L28.5915 109.894L28.1157 116.606L34.5264 117.06L35.0021 110.348Z" fill="black"/>
<path d="M47.8234 111.257L41.4127 110.803L40.937 117.514L47.3476 117.969L47.8234 111.257Z" fill="black"/>
<path d="M67.0553 112.62L60.6447 112.166L60.1689 118.878L66.5796 119.332L67.0553 112.62Z" fill="black"/>
<path d="M73.4659 113.075L67.0553 112.62L66.5796 119.332L72.9902 119.786L73.4659 113.075Z" fill="black"/>
<path d="M86.2872 113.984L79.8766 113.529L79.4008 120.241L85.8115 120.695L86.2872 113.984Z" fill="black"/>
<path d="M92.6979 114.438L86.2872 113.984L85.8115 120.695L92.2221 121.15L92.6979 114.438Z" fill="black"/>
<path d="M105.519 115.347L99.1085 114.892L98.6328 121.604L105.043 122.058L105.519 115.347Z" fill="black"/>
<path d="M124.751 116.71L118.34 116.256L117.865 122.967L124.275 123.422L124.751 116.71Z" fill="black"/>
<path d="M137.572 117.619L131.162 117.164L130.686 123.876L137.097 124.33L137.572 117.619Z" fill="black"/>
<path d="M143.983 118.073L137.572 117.619L137.097 124.33L143.507 124.785L143.983 118.073Z" fill="black"/>
<path d="M156.804 118.982L150.394 118.528L149.918 125.239L156.329 125.694L156.804 118.982Z" fill="black"/>
<path d="M176.036 120.345L169.626 119.891L169.15 126.602L175.56 127.057L176.036 120.345Z" fill="black"/>
<path d="M188.857 121.254L182.447 120.8L181.971 127.511L188.382 127.966L188.857 121.254Z" fill="black"/>
<path d="M28.1157 116.606L21.7051 116.151L21.2293 122.863L27.64 123.317L28.1157 116.606Z" fill="black"/>
<path d="M34.5264 117.06L28.1157 116.606L27.64 123.317L34.0506 123.772L34.5264 117.06Z" fill="black"/>
<path d="M40.937 117.514L34.5264 117.06L34.0506 123.772L40.4613 124.226L40.937 117.514Z" fill="black"/>
<path d="M47.3476 117.969L40.937 117.514L40.4613 124.226L46.8719 124.68L47.3476 117.969Z" fill="black"/>
<path d="M53.7583 118.423L47.3476 117.969L46.8719 124.68L53.2825 125.135L53.7583 118.423Z" fill="black"/>
<path d="M85.8115 120.695L79.4008 120.241L78.9251 126.952L85.3357 127.407L85.8115 120.695Z" fill="black"/>
<path d="M92.2221 121.15L85.8115 120.695L85.3357 127.407L91.7464 127.861L92.2221 121.15Z" fill="black"/>
<path d="M98.6328 121.604L92.2221 121.15L91.7464 127.861L98.157 128.316L98.6328 121.604Z" fill="black"/>
<path d="M105.043 122.058L98.6328 121.604L98.157 128.316L104.568 128.77L105.043 122.058Z" fill="black"/>
<path d="M111.454 122.513L105.043 122.058L104.568 128.77L110.978 129.224L111.454 122.513Z" fill="black"/>
<path d="M137.097 124.33L130.686 123.876L130.21 130.588L136.621 131.042L137.097 124.33Z" fill="black"/>
<path d="M143.507 124.785L137.097 124.33L136.621 131.042L143.032 131.496L143.507 124.785Z" fill="black"/>
<path d="M149.918 125.239L143.507 124.785L143.032 131.496L149.442 131.951L149.918 125.239Z" fill="black"/>
<path d="M156.329 125.694L149.918 125.239L149.442 131.951L155.853 132.405L156.329 125.694Z" fill="black"/>
<path d="M169.15 126.602L162.739 126.148L162.263 132.86L168.674 133.314L169.15 126.602Z" fill="black"/>
<path d="M175.56 127.057L169.15 126.602L168.674 133.314L175.085 133.768L175.56 127.057Z" fill="black"/>
<path d="M181.971 127.511L175.56 127.057L175.085 133.768L181.495 134.223L181.971 127.511Z" fill="black"/>
<path d="M194.792 128.42L188.382 127.966L187.906 134.677L194.317 135.132L194.792 128.42Z" fill="black"/>
<path d="M201.203 128.874L194.792 128.42L194.317 135.132L200.727 135.586L201.203 128.874Z" fill="black"/>
<path d="M207.614 129.329L201.203 128.874L200.727 135.586L207.138 136.04L207.614 129.329Z" fill="black"/>
<path d="M34.0506 123.772L27.64 123.317L27.1643 130.029L33.5749 130.483L34.0506 123.772Z" fill="black"/>
<path d="M53.2825 125.135L46.8719 124.68L46.3962 131.392L52.8068 131.846L53.2825 125.135Z" fill="black"/>
<path d="M66.1038 126.044L59.6932 125.589L59.2175 132.301L65.6281 132.755L66.1038 126.044Z" fill="black"/>
<path d="M72.5145 126.498L66.1038 126.044L65.6281 132.755L72.0387 133.21L72.5145 126.498Z" fill="black"/>
<path d="M78.9251 126.952L72.5145 126.498L72.0387 133.21L78.4494 133.664L78.9251 126.952Z" fill="black"/>
<path d="M91.7464 127.861L85.3357 127.407L84.86 134.118L91.2707 134.573L91.7464 127.861Z" fill="black"/>
<path d="M110.978 129.224L104.568 128.77L104.092 135.482L110.503 135.936L110.978 129.224Z" fill="black"/>
<path d="M123.8 130.133L117.389 129.679L116.913 136.39L123.324 136.845L123.8 130.133Z" fill="black"/>
<path d="M143.032 131.496L136.621 131.042L136.145 137.754L142.556 138.208L143.032 131.496Z" fill="black"/>
<path d="M149.442 131.951L143.032 131.496L142.556 138.208L148.966 138.662L149.442 131.951Z" fill="black"/>
<path d="M162.263 132.86L155.853 132.405L155.377 139.117L161.788 139.571L162.263 132.86Z" fill="black"/>
<path d="M175.085 133.768L168.674 133.314L168.198 140.026L174.609 140.48L175.085 133.768Z" fill="black"/>
<path d="M187.906 134.677L181.495 134.223L181.02 140.934L187.43 141.389L187.906 134.677Z" fill="black"/>
<path d="M194.317 135.132L187.906 134.677L187.43 141.389L193.841 141.843L194.317 135.132Z" fill="black"/>
<path d="M33.5749 130.483L27.1643 130.029L26.6885 136.74L33.0992 137.195L33.5749 130.483Z" fill="black"/>
<path d="M46.3962 131.392L39.9855 130.938L39.5098 137.649L45.9204 138.104L46.3962 131.392Z" fill="black"/>
<path d="M52.8068 131.846L46.3962 131.392L45.9204 138.104L52.3311 138.558L52.8068 131.846Z" fill="black"/>
<path d="M59.2175 132.301L52.8068 131.846L52.3311 138.558L58.7417 139.012L59.2175 132.301Z" fill="black"/>
<path d="M78.4494 133.664L72.0387 133.21L71.563 139.921L77.9736 140.376L78.4494 133.664Z" fill="black"/>
<path d="M84.86 134.118L78.4494 133.664L77.9736 140.376L84.3843 140.83L84.86 134.118Z" fill="black"/>
<path d="M104.092 135.482L97.6813 135.027L97.2056 141.739L103.616 142.193L104.092 135.482Z" fill="black"/>
<path d="M129.734 137.299L123.324 136.845L122.848 143.556L129.259 144.011L129.734 137.299Z" fill="black"/>
<path d="M136.145 137.754L129.734 137.299L129.259 144.011L135.669 144.465L136.145 137.754Z" fill="black"/>
<path d="M142.556 138.208L136.145 137.754L135.669 144.465L142.08 144.92L142.556 138.208Z" fill="black"/>
<path d="M155.377 139.117L148.966 138.662L148.491 145.374L154.901 145.828L155.377 139.117Z" fill="black"/>
<path d="M161.788 139.571L155.377 139.117L154.901 145.828L161.312 146.283L161.788 139.571Z" fill="black"/>
<path d="M181.02 140.934L174.609 140.48L174.133 147.192L180.544 147.646L181.02 140.934Z" fill="black"/>
<path d="M206.662 142.752L200.252 142.298L199.776 149.009L206.186 149.464L206.662 142.752Z" fill="black"/>
<path d="M26.6885 136.74L20.2779 136.286L19.8021 142.998L26.2128 143.452L26.6885 136.74Z" fill="black"/>
<path d="M33.0992 137.195L26.6885 136.74L26.2128 143.452L32.6234 143.906L33.0992 137.195Z" fill="black"/>
<path d="M52.3311 138.558L45.9204 138.104L45.4447 144.815L51.8553 145.27L52.3311 138.558Z" fill="black"/>
<path d="M65.1524 139.467L58.7417 139.012L58.266 145.724L64.6766 146.178L65.1524 139.467Z" fill="black"/>
<path d="M84.3843 140.83L77.9736 140.376L77.4979 147.087L83.9085 147.542L84.3843 140.83Z" fill="black"/>
<path d="M135.669 144.465L129.259 144.011L128.783 150.722L135.194 151.177L135.669 144.465Z" fill="black"/>
<path d="M148.491 145.374L142.08 144.92L141.604 151.631L148.015 152.086L148.491 145.374Z" fill="black"/>
<path d="M161.312 146.283L154.901 145.828L154.426 152.54L160.836 152.994L161.312 146.283Z" fill="black"/>
<path d="M167.723 146.737L161.312 146.283L160.836 152.994L167.247 153.449L167.723 146.737Z" fill="black"/>
<path d="M186.955 148.1L180.544 147.646L180.068 154.358L186.479 154.812L186.955 148.1Z" fill="black"/>
<path d="M199.776 149.009L193.365 148.555L192.889 155.266L199.3 155.721L199.776 149.009Z" fill="black"/>
<path d="M26.2128 143.452L19.8021 142.998L19.3264 149.709L25.737 150.164L26.2128 143.452Z" fill="black"/>
<path d="M39.0341 144.361L32.6234 143.906L32.1477 150.618L38.5583 151.072L39.0341 144.361Z" fill="black"/>
<path d="M45.4447 144.815L39.0341 144.361L38.5583 151.072L44.969 151.527L45.4447 144.815Z" fill="black"/>
<path d="M51.8553 145.27L45.4447 144.815L44.969 151.527L51.3796 151.981L51.8553 145.27Z" fill="black"/>
<path d="M83.9085 147.542L77.4979 147.087L77.0222 153.799L83.4328 154.253L83.9085 147.542Z" fill="black"/>
<path d="M109.551 149.359L103.14 148.905L102.665 155.616L109.075 156.071L109.551 149.359Z" fill="black"/>
<path d="M135.194 151.177L128.783 150.722L128.307 157.434L134.718 157.888L135.194 151.177Z" fill="black"/>
<path d="M148.015 152.086L141.604 151.631L141.129 158.343L147.539 158.797L148.015 152.086Z" fill="black"/>
<path d="M160.836 152.994L154.426 152.54L153.95 159.252L160.36 159.706L160.836 152.994Z" fill="black"/>
<path d="M167.247 153.449L160.836 152.994L160.36 159.706L166.771 160.16L167.247 153.449Z" fill="black"/>
<path d="M199.3 155.721L192.889 155.266L192.414 161.978L198.824 162.432L199.3 155.721Z" fill="black"/>
<path d="M25.737 150.164L19.3264 149.709L18.8507 156.421L25.2613 156.875L25.737 150.164Z" fill="black"/>
<path d="M32.1477 150.618L25.737 150.164L25.2613 156.875L31.672 157.33L32.1477 150.618Z" fill="black"/>
<path d="M38.5583 151.072L32.1477 150.618L31.672 157.33L38.0826 157.784L38.5583 151.072Z" fill="black"/>
<path d="M57.7902 152.436L51.3796 151.981L50.9039 158.693L57.3145 159.147L57.7902 152.436Z" fill="black"/>
<path d="M64.2009 152.89L57.7902 152.436L57.3145 159.147L63.7252 159.602L64.2009 152.89Z" fill="black"/>
<path d="M77.0222 153.799L70.6115 153.344L70.1358 160.056L76.5464 160.51L77.0222 153.799Z" fill="black"/>
<path d="M102.665 155.616L96.2541 155.162L95.7784 161.874L102.189 162.328L102.665 155.616Z" fill="black"/>
<path d="M128.307 157.434L121.897 156.98L121.421 163.691L127.832 164.146L128.307 157.434Z" fill="black"/>
<path d="M141.129 158.343L134.718 157.888L134.242 164.6L140.653 165.054L141.129 158.343Z" fill="black"/>
<path d="M153.95 159.252L147.539 158.797L147.063 165.509L153.474 165.963L153.95 159.252Z" fill="black"/>
<path d="M160.36 159.706L153.95 159.252L153.474 165.963L159.885 166.418L160.36 159.706Z" fill="black"/>
<path d="M166.771 160.16L160.36 159.706L159.885 166.418L166.295 166.872L166.771 160.16Z" fill="black"/>
<path d="M173.182 160.615L166.771 160.16L166.295 166.872L172.706 167.326L173.182 160.615Z" fill="black"/>
<path d="M179.592 161.069L173.182 160.615L172.706 167.326L179.117 167.781L179.592 161.069Z" fill="black"/>
<path d="M186.003 161.524L179.592 161.069L179.117 167.781L185.527 168.235L186.003 161.524Z" fill="black"/>
<path d="M192.414 161.978L186.003 161.524L185.527 168.235L191.938 168.69L192.414 161.978Z" fill="black"/>
<path d="M198.824 162.432L192.414 161.978L191.938 168.69L198.349 169.144L198.824 162.432Z" fill="black"/>
<path d="M82.9571 160.965L76.5464 160.51L76.0707 167.222L82.4813 167.676L82.9571 160.965Z" fill="black"/>
<path d="M89.3677 161.419L82.9571 160.965L82.4813 167.676L88.892 168.131L89.3677 161.419Z" fill="black"/>
<path d="M95.7784 161.874L89.3677 161.419L88.892 168.131L95.3026 168.585L95.7784 161.874Z" fill="black"/>
<path d="M108.6 162.782L102.189 162.328L101.713 169.04L108.124 169.494L108.6 162.782Z" fill="black"/>
<path d="M140.653 165.054L134.242 164.6L133.766 171.312L140.177 171.766L140.653 165.054Z" fill="black"/>
<path d="M153.474 165.963L147.063 165.509L146.588 172.22L152.998 172.675L153.474 165.963Z" fill="black"/>
<path d="M179.117 167.781L172.706 167.326L172.23 174.038L178.641 174.492L179.117 167.781Z" fill="black"/>
<path d="M204.759 169.598L198.349 169.144L197.873 175.856L204.284 176.31L204.759 169.598Z" fill="black"/>
<path d="M24.7856 163.587L18.3749 163.132L17.8992 169.844L24.3098 170.298L24.7856 163.587Z" fill="black"/>
<path d="M31.1962 164.041L24.7856 163.587L24.3098 170.298L30.7205 170.753L31.1962 164.041Z" fill="black"/>
<path d="M37.6069 164.496L31.1962 164.041L30.7205 170.753L37.1311 171.207L37.6069 164.496Z" fill="black"/>
<path d="M44.0175 164.95L37.6069 164.496L37.1311 171.207L43.5418 171.662L44.0175 164.95Z" fill="black"/>
<path d="M50.4281 165.404L44.0175 164.95L43.5418 171.662L49.9524 172.116L50.4281 165.404Z" fill="black"/>
<path d="M56.8388 165.859L50.4281 165.404L49.9524 172.116L56.363 172.57L56.8388 165.859Z" fill="black"/>
<path d="M63.2494 166.313L56.8388 165.859L56.363 172.57L62.7737 173.025L63.2494 166.313Z" fill="black"/>
<path d="M76.0707 167.222L69.6601 166.768L69.1843 173.479L75.595 173.934L76.0707 167.222Z" fill="black"/>
<path d="M82.4813 167.676L76.0707 167.222L75.595 173.934L82.0056 174.388L82.4813 167.676Z" fill="black"/>
<path d="M88.892 168.131L82.4813 167.676L82.0056 174.388L88.4162 174.842L88.892 168.131Z" fill="black"/>
<path d="M108.124 169.494L101.713 169.04L101.238 175.751L107.648 176.206L108.124 169.494Z" fill="black"/>
<path d="M114.535 169.948L108.124 169.494L107.648 176.206L114.059 176.66L114.535 169.948Z" fill="black"/>
<path d="M120.945 170.403L114.535 169.948L114.059 176.66L120.469 177.114L120.945 170.403Z" fill="black"/>
<path d="M133.766 171.312L127.356 170.857L126.88 177.569L133.291 178.023L133.766 171.312Z" fill="black"/>
<path d="M146.588 172.22L140.177 171.766L139.701 178.478L146.112 178.932L146.588 172.22Z" fill="black"/>
<path d="M152.998 172.675L146.588 172.22L146.112 178.932L152.523 179.386L152.998 172.675Z" fill="black"/>
<path d="M165.82 173.584L159.409 173.129L158.933 179.841L165.344 180.295L165.82 173.584Z" fill="black"/>
<path d="M178.641 174.492L172.23 174.038L171.755 180.75L178.165 181.204L178.641 174.492Z" fill="black"/>
<path d="M191.462 175.401L185.052 174.947L184.576 181.658L190.986 182.113L191.462 175.401Z" fill="black"/>
<path d="M24.3098 170.298L17.8992 169.844L17.4235 176.556L23.8341 177.01L24.3098 170.298Z" fill="black"/>
<path d="M62.7737 173.025L56.363 172.57L55.8873 179.282L62.2979 179.736L62.7737 173.025Z" fill="black"/>
<path d="M75.595 173.934L69.1843 173.479L68.7086 180.191L75.1192 180.645L75.595 173.934Z" fill="black"/>
<path d="M82.0056 174.388L75.595 173.934L75.1192 180.645L81.5299 181.1L82.0056 174.388Z" fill="black"/>
<path d="M94.8269 175.297L88.4162 174.842L87.9405 181.554L94.3512 182.008L94.8269 175.297Z" fill="black"/>
<path d="M107.648 176.206L101.238 175.751L100.762 182.463L107.172 182.917L107.648 176.206Z" fill="black"/>
<path d="M114.059 176.66L107.648 176.206L107.172 182.917L113.583 183.372L114.059 176.66Z" fill="black"/>
<path d="M133.291 178.023L126.88 177.569L126.404 184.28L132.815 184.735L133.291 178.023Z" fill="black"/>
<path d="M139.701 178.478L133.291 178.023L132.815 184.735L139.226 185.189L139.701 178.478Z" fill="black"/>
<path d="M152.523 179.386L146.112 178.932L145.636 185.644L152.047 186.098L152.523 179.386Z" fill="black"/>
<path d="M178.165 181.204L171.755 180.75L171.279 187.461L177.689 187.916L178.165 181.204Z" fill="black"/>
<path d="M190.986 182.113L184.576 181.658L184.1 188.37L190.511 188.824L190.986 182.113Z" fill="black"/>
<path d="M197.397 182.567L190.986 182.113L190.511 188.824L196.921 189.279L197.397 182.567Z" fill="black"/>
<path d="M203.808 183.022L197.397 182.567L196.921 189.279L203.332 189.733L203.808 183.022Z" fill="black"/>
<path d="M23.8341 177.01L17.4235 176.556L16.9477 183.267L23.3584 183.722L23.8341 177.01Z" fill="black"/>
<path d="M36.6554 177.919L30.2447 177.464L29.769 184.176L36.1797 184.63L36.6554 177.919Z" fill="black"/>
<path d="M43.066 178.373L36.6554 177.919L36.1797 184.63L42.5903 185.085L43.066 178.373Z" fill="black"/>
<path d="M49.4767 178.828L43.066 178.373L42.5903 185.085L49.0009 185.539L49.4767 178.828Z" fill="black"/>
<path d="M62.2979 179.736L55.8873 179.282L55.4116 185.994L61.8222 186.448L62.2979 179.736Z" fill="black"/>
<path d="M75.1192 180.645L68.7086 180.191L68.2329 186.902L74.6435 187.357L75.1192 180.645Z" fill="black"/>
<path d="M81.5299 181.1L75.1192 180.645L74.6435 187.357L81.0541 187.811L81.5299 181.1Z" fill="black"/>
<path d="M87.9405 181.554L81.5299 181.1L81.0541 187.811L87.4648 188.266L87.9405 181.554Z" fill="black"/>
<path d="M107.172 182.917L100.762 182.463L100.286 189.174L106.697 189.629L107.172 182.917Z" fill="black"/>
<path d="M113.583 183.372L107.172 182.917L106.697 189.629L113.107 190.083L113.583 183.372Z" fill="black"/>
<path d="M119.994 183.826L113.583 183.372L113.107 190.083L119.518 190.538L119.994 183.826Z" fill="black"/>
<path d="M132.815 184.735L126.404 184.28L125.929 190.992L132.339 191.446L132.815 184.735Z" fill="black"/>
<path d="M145.636 185.644L139.226 185.189L138.75 191.901L145.161 192.355L145.636 185.644Z" fill="black"/>
<path d="M152.047 186.098L145.636 185.644L145.161 192.355L151.571 192.81L152.047 186.098Z" fill="black"/>
<path d="M158.458 186.552L152.047 186.098L151.571 192.81L157.982 193.264L158.458 186.552Z" fill="black"/>
<path d="M164.868 187.007L158.458 186.552L157.982 193.264L164.392 193.718L164.868 187.007Z" fill="black"/>
<path d="M171.279 187.461L164.868 187.007L164.392 193.718L170.803 194.173L171.279 187.461Z" fill="black"/>
<path d="M177.689 187.916L171.279 187.461L170.803 194.173L177.214 194.627L177.689 187.916Z" fill="black"/>
<path d="M190.511 188.824L184.1 188.37L183.624 195.082L190.035 195.536L190.511 188.824Z" fill="black"/>
<path d="M23.3584 183.722L16.9477 183.267L16.472 189.979L22.8826 190.433L23.3584 183.722Z" fill="black"/>
<path d="M36.1797 184.63L29.769 184.176L29.2933 190.888L35.7039 191.342L36.1797 184.63Z" fill="black"/>
<path d="M42.5903 185.085L36.1797 184.63L35.7039 191.342L42.1146 191.796L42.5903 185.085Z" fill="black"/>
<path d="M49.0009 185.539L42.5903 185.085L42.1146 191.796L48.5252 192.251L49.0009 185.539Z" fill="black"/>
<path d="M61.8222 186.448L55.4116 185.994L54.9358 192.705L61.3465 193.16L61.8222 186.448Z" fill="black"/>
<path d="M74.6435 187.357L68.2329 186.902L67.7571 193.614L74.1678 194.068L74.6435 187.357Z" fill="black"/>
<path d="M100.286 189.174L93.8754 188.72L93.3997 195.432L99.8103 195.886L100.286 189.174Z" fill="black"/>
<path d="M132.339 191.446L125.929 190.992L125.453 197.704L131.864 198.158L132.339 191.446Z" fill="black"/>
<path d="M138.75 191.901L132.339 191.446L131.864 198.158L138.274 198.613L138.75 191.901Z" fill="black"/>
<path d="M157.982 193.264L151.571 192.81L151.095 199.521L157.506 199.976L157.982 193.264Z" fill="black"/>
<path d="M164.392 193.718L157.982 193.264L157.506 199.976L163.917 200.43L164.392 193.718Z" fill="black"/>
<path d="M170.803 194.173L164.392 193.718L163.917 200.43L170.327 200.885L170.803 194.173Z" fill="black"/>
<path d="M183.624 195.082L177.214 194.627L176.738 201.339L183.149 201.793L183.624 195.082Z" fill="black"/>
<path d="M196.446 195.99L190.035 195.536L189.559 202.248L195.97 202.702L196.446 195.99Z" fill="black"/>
<path d="M22.8826 190.433L16.472 189.979L15.9963 196.69L22.4069 197.145L22.8826 190.433Z" fill="black"/>
<path d="M35.7039 191.342L29.2933 190.888L28.8175 197.599L35.2282 198.054L35.7039 191.342Z" fill="black"/>
<path d="M42.1146 191.796L35.7039 191.342L35.2282 198.054L41.6388 198.508L42.1146 191.796Z" fill="black"/>
<path d="M48.5252 192.251L42.1146 191.796L41.6388 198.508L48.0495 198.962L48.5252 192.251Z" fill="black"/>
<path d="M61.3465 193.16L54.9358 192.705L54.4601 199.417L60.8707 199.871L61.3465 193.16Z" fill="black"/>
<path d="M74.1678 194.068L67.7571 193.614L67.2814 200.326L73.692 200.78L74.1678 194.068Z" fill="black"/>
<path d="M99.8103 195.886L93.3997 195.432L92.9239 202.143L99.3346 202.598L99.8103 195.886Z" fill="black"/>
<path d="M106.221 196.34L99.8103 195.886L99.3346 202.598L105.745 203.052L106.221 196.34Z" fill="black"/>
<path d="M112.632 196.795L106.221 196.34L105.745 203.052L112.156 203.506L112.632 196.795Z" fill="black"/>
<path d="M125.453 197.704L119.042 197.249L118.567 203.961L124.977 204.415L125.453 197.704Z" fill="black"/>
<path d="M131.864 198.158L125.453 197.704L124.977 204.415L131.388 204.87L131.864 198.158Z" fill="black"/>
<path d="M138.274 198.613L131.864 198.158L131.388 204.87L137.798 205.324L138.274 198.613Z" fill="black"/>
<path d="M151.095 199.521L144.685 199.067L144.209 205.779L150.62 206.233L151.095 199.521Z" fill="black"/>
<path d="M157.506 199.976L151.095 199.521L150.62 206.233L157.03 206.687L157.506 199.976Z" fill="black"/>
<path d="M163.917 200.43L157.506 199.976L157.03 206.687L163.441 207.142L163.917 200.43Z" fill="black"/>
<path d="M176.738 201.339L170.327 200.885L169.852 207.596L176.262 208.051L176.738 201.339Z" fill="black"/>
<path d="M183.149 201.793L176.738 201.339L176.262 208.051L182.673 208.505L183.149 201.793Z" fill="black"/>
<path d="M202.381 203.157L195.97 202.702L195.494 209.414L201.905 209.868L202.381 203.157Z" fill="black"/>
<path d="M22.4069 197.145L15.9963 196.69L15.5205 203.402L21.9312 203.857L22.4069 197.145Z" fill="black"/>
<path d="M60.8707 199.871L54.4601 199.417L53.9844 206.129L60.395 206.583L60.8707 199.871Z" fill="black"/>
<path d="M92.9239 202.143L86.5133 201.689L86.0376 208.401L92.4482 208.855L92.9239 202.143Z" fill="black"/>
<path d="M118.567 203.961L112.156 203.506L111.68 210.218L118.091 210.673L118.567 203.961Z" fill="black"/>
<path d="M144.209 205.779L137.798 205.324L137.323 212.036L143.733 212.49L144.209 205.779Z" fill="black"/>
<path d="M150.62 206.233L144.209 205.779L143.733 212.49L150.144 212.945L150.62 206.233Z" fill="black"/>
<path d="M157.03 206.687L150.62 206.233L150.144 212.945L156.555 213.399L157.03 206.687Z" fill="black"/>
<path d="M169.852 207.596L163.441 207.142L162.965 213.853L169.376 214.308L169.852 207.596Z" fill="black"/>
<path d="M176.262 208.051L169.852 207.596L169.376 214.308L175.787 214.762L176.262 208.051Z" fill="black"/>
<path d="M182.673 208.505L176.262 208.051L175.787 214.762L182.197 215.217L182.673 208.505Z" fill="black"/>
<path d="M189.084 208.959L182.673 208.505L182.197 215.217L188.608 215.671L189.084 208.959Z" fill="black"/>
<path d="M195.494 209.414L189.084 208.959L188.608 215.671L195.018 216.125L195.494 209.414Z" fill="black"/>
<path d="M21.9312 203.857L15.5205 203.402L15.0448 210.114L21.4554 210.568L21.9312 203.857Z" fill="black"/>
<path d="M28.3418 204.311L21.9312 203.857L21.4554 210.568L27.8661 211.023L28.3418 204.311Z" fill="black"/>
<path d="M34.7525 204.765L28.3418 204.311L27.8661 211.023L34.2767 211.477L34.7525 204.765Z" fill="black"/>
<path d="M41.1631 205.22L34.7525 204.765L34.2767 211.477L40.6874 211.931L41.1631 205.22Z" fill="black"/>
<path d="M47.5737 205.674L41.1631 205.22L40.6874 211.931L47.098 212.386L47.5737 205.674Z" fill="black"/>
<path d="M53.9844 206.129L47.5737 205.674L47.098 212.386L53.5086 212.84L53.9844 206.129Z" fill="black"/>
<path d="M60.395 206.583L53.9844 206.129L53.5086 212.84L59.9193 213.295L60.395 206.583Z" fill="black"/>
<path d="M79.6269 207.946L73.2163 207.492L72.7406 214.203L79.1512 214.658L79.6269 207.946Z" fill="black"/>
<path d="M105.269 209.764L98.8589 209.309L98.3831 216.021L104.794 216.475L105.269 209.764Z" fill="black"/>
<path d="M130.912 211.581L124.501 211.127L124.026 217.839L130.436 218.293L130.912 211.581Z" fill="black"/>
<path d="M150.144 212.945L143.733 212.49L143.258 219.202L149.668 219.656L150.144 212.945Z" fill="black"/>
<path d="M156.555 213.399L150.144 212.945L149.668 219.656L156.079 220.111L156.555 213.399Z" fill="black"/>
<path d="M182.197 215.217L175.787 214.762L175.311 221.474L181.721 221.928L182.197 215.217Z" fill="black"/>
</g>
<defs>
<clipPath id="clip0_32_44">
<rect width="213" height="223" fill="white" transform="translate(16.5474 0.633057) rotate(4.05448)"/>
</clipPath>
</defs>
</svg>
