<svg width="18" height="18" viewBox="0 0 18 18" fill="none" xmlns="http://www.w3.org/2000/svg">
<path fill-rule="evenodd" clip-rule="evenodd" d="M1.9 0C0.9 0 0 0.8 0 1.9V6C0 7 0.8 7.9 1.9 7.9H6C7 7.9 7.9 7.1 7.9 6V2C7.9 1 7.1 0.0999999 6 0.0999999H2L1.9 0ZM11.9 0C10.9 0 10 0.8 10 1.9V6C10 7 10.8 7.9 11.9 7.9H16C17 7.9 17.9 7.1 17.9 6V2C17.9 1 17.1 0.0999999 16 0.0999999H12L11.9 0ZM1.9 10C0.9 10 0 10.8 0 11.9V16C0 17 0.8 17.9 1.9 17.9H6C7 17.9 7.9 17.1 7.9 16V12C7.9 11 7.1 10.1 6 10.1H2L1.9 10ZM11.9 10C10.9 10 10 10.8 10 11.9V16C10 17 10.8 17.9 11.9 17.9H16C17 17.9 17.9 17.1 17.9 16V12C17.9 11 17.1 10.1 16 10.1H12L11.9 10Z" fill="white"/>
</svg>
