<svg width="52" height="36" viewBox="0 0 52 36" fill="none" xmlns="http://www.w3.org/2000/svg">
<path d="M44.0213 2.9863C40.6499 1.58003 37.0918 0.576904 33.4362 0.00205036C33.4031 -0.00301532 33.3691 0.00135974 33.3388 0.0145741C33.3085 0.0277885 33.2835 0.0491932 33.2672 0.0758449C32.809 0.813791 32.302 1.77902 31.9477 2.53468C28.0074 1.99203 23.9996 1.99203 20.0593 2.53468C19.6658 1.6922 19.2188 0.871199 18.7204 0.0758449C18.704 0.0491932 18.679 0.0277885 18.6488 0.0145741C18.6185 0.00135974 18.5845 -0.00301532 18.5514 0.00205036C14.8951 0.574697 11.3364 1.5783 7.96622 2.9863C7.93723 2.99608 7.91304 3.01492 7.89797 3.03944C1.15754 12.187 -0.691694 21.1103 0.215047 29.9213C0.221547 29.9646 0.244296 30.001 0.283296 30.0306C4.20915 32.6701 8.5992 34.6862 13.2669 35.9932C13.2999 36.0026 13.3353 36.0023 13.368 35.9922C13.4007 35.9821 13.4291 35.9628 13.4489 35.9371C14.4521 34.6973 15.3382 33.3897 16.1074 32.0142C16.1234 31.9858 16.1288 31.9536 16.123 31.9222C16.1171 31.8908 16.1003 31.862 16.0749 31.84L16.0164 31.8075C14.6168 31.3174 13.2608 30.7302 11.9604 30.0512C11.9241 30.0325 11.8971 30.0019 11.885 29.9656C11.8729 29.9293 11.8766 29.8902 11.8954 29.8564L11.9442 29.8003C12.2193 29.6134 12.488 29.4215 12.7502 29.2247C12.7731 29.2079 12.8007 29.1972 12.8299 29.1935C12.8591 29.1899 12.8888 29.1935 12.9159 29.2041C21.4276 32.7344 30.6412 32.7344 39.0489 29.2041C39.0768 29.1923 39.1078 29.1881 39.1383 29.1917C39.1688 29.1954 39.1975 29.2068 39.2211 29.2247C39.4833 29.4215 39.752 29.6134 40.0271 29.8003C40.05 29.8145 40.0685 29.8338 40.0808 29.8564C40.0932 29.8789 40.099 29.9039 40.0977 29.9291C40.0964 29.9542 40.088 29.9786 40.0734 30C40.0588 30.0214 40.0384 30.039 40.0141 30.0512C38.7193 30.741 37.3612 31.3276 35.9549 31.8046C35.9325 31.8119 35.9122 31.8237 35.8953 31.839C35.8785 31.8543 35.8655 31.8728 35.8574 31.8931C35.8495 31.9128 35.8463 31.9337 35.848 31.9546C35.8497 31.9755 35.8562 31.9958 35.8672 32.0142C36.6472 33.3867 37.5409 34.6973 38.5224 35.9371C38.5422 35.9628 38.5706 35.9821 38.6033 35.9922C38.636 36.0023 38.6714 36.0026 38.7044 35.9932C43.3813 34.6934 47.7791 32.6768 51.7075 30.0306C51.727 30.018 51.7433 30.0017 51.7551 29.9829C51.7669 29.964 51.7739 29.943 51.7758 29.9213C52.8612 19.7347 49.959 10.8853 44.0863 3.04239C44.0812 3.029 44.0727 3.01692 44.0614 3.00716C44.05 2.9974 44.0363 2.99025 44.0213 2.9863ZM17.3781 24.555C14.8139 24.555 12.7047 22.4179 12.7047 19.7967C12.7047 17.1755 14.7749 15.0355 17.3781 15.0355C20.0008 15.0355 22.0906 17.1903 22.0516 19.7967C22.0516 22.4179 19.9813 24.555 17.3781 24.555ZM34.6549 24.555C32.094 24.555 29.9815 22.4179 29.9815 19.7967C29.9815 17.1755 32.0517 15.0355 34.6549 15.0355C37.2777 15.0355 39.3706 17.1903 39.3284 19.7967C39.3284 22.4179 37.2777 24.555 34.6549 24.555Z" fill="#777777"/>
</svg>
