<svg width="44" height="39" viewBox="0 0 44 39" fill="none" xmlns="http://www.w3.org/2000/svg">
<g clip-path="url(#clip0_32_490)">
<path d="M44 19.5C44 24.6717 41.6822 29.6316 37.5564 33.2886C33.4305 36.9455 27.8348 39 22 39C16.1652 39 10.5695 36.9455 6.44365 33.2886C2.31785 29.6316 0 24.6717 0 19.5C0 14.3283 2.31785 9.36838 6.44365 5.71142C10.5695 2.05446 16.1652 0 22 0C27.8348 0 33.4305 2.05446 37.5564 5.71142C41.6822 9.36838 44 14.3283 44 19.5ZM22.7892 14.3959C20.6479 15.1856 16.3708 16.8188 9.95775 19.2952C8.91825 19.6609 8.37283 20.02 8.3215 20.3726C8.239 20.9649 9.07775 21.1989 10.219 21.5182L10.7002 21.6523C11.8223 21.9765 13.3347 22.3543 14.1185 22.3689C14.8335 22.3852 15.6292 22.1252 16.5055 21.5889C22.4987 18.0042 25.5915 16.1923 25.784 16.1533C25.9215 16.1241 26.114 16.0899 26.2405 16.1923C26.367 16.2947 26.356 16.4848 26.3423 16.536C26.2598 16.8504 22.968 19.5609 21.2657 20.9649C20.735 21.4037 20.3582 21.7133 20.2812 21.7839C20.1117 21.9376 19.9394 22.0887 19.7642 22.2373C18.7192 23.1294 17.9382 23.7973 19.8055 24.8893C20.7048 25.4158 21.4253 25.8472 22.143 26.2811C22.924 26.754 23.705 27.2244 24.717 27.8143C24.9737 27.9638 25.2212 28.1157 25.4595 28.2701C26.3698 28.8454 27.192 29.3621 28.2013 29.2793C28.7898 29.2305 29.3975 28.743 29.7055 27.2805C30.4342 23.8266 31.867 16.3459 32.197 13.2624C32.2177 13.0061 32.2057 12.7486 32.1612 12.4946C32.1346 12.2899 32.0228 12.1013 31.8478 11.9657C31.5972 11.8132 31.2991 11.7339 30.9953 11.739C30.1702 11.7512 28.897 12.1436 22.7892 14.3959Z" fill="#777777"/>
</g>
<defs>
<clipPath id="clip0_32_490">
<rect width="44" height="39" fill="white"/>
</clipPath>
</defs>
</svg>
