<svg width="48" height="44" viewBox="0 0 48 44" fill="none" xmlns="http://www.w3.org/2000/svg">
<g clip-path="url(#clip0_32_494)">
<path d="M15.078 41.25C33.192 41.25 43.101 27.4917 43.101 15.5815C43.105 15.1946 43.099 14.8078 43.083 14.421C45.0115 13.1401 46.6764 11.5553 48 9.74045C46.1973 10.4672 44.2879 10.9472 42.333 11.165C44.3928 10.0366 45.9354 8.26099 46.674 6.1682C44.7398 7.22069 42.6216 7.95848 40.413 8.34895C38.9285 6.89977 36.9642 5.93973 34.8243 5.61754C32.6843 5.29535 30.4882 5.62899 28.576 6.56678C26.6639 7.50457 25.1424 8.99418 24.2473 10.8049C23.3523 12.6156 23.1335 14.6463 23.625 16.5825C19.709 16.4033 15.8779 15.4712 12.3805 13.8467C8.88303 12.2221 5.79742 9.94142 3.324 7.1527C2.06874 9.14134 1.68585 11.4933 2.25302 13.7312C2.82019 15.9691 4.29494 17.9255 6.378 19.2032C4.81623 19.1569 3.28858 18.7725 1.92 18.0812V18.205C1.92382 20.2877 2.71146 22.3056 4.14997 23.9178C5.58848 25.53 7.58976 26.6379 9.816 27.0545C8.97081 27.268 8.0977 27.3744 7.221 27.3707C6.60276 27.3766 5.9855 27.3241 5.379 27.214C6.00718 29.0078 7.23233 30.5763 8.88251 31.6993C10.5327 32.8223 12.5251 33.4435 14.58 33.4757C11.0883 35.9864 6.77774 37.349 2.34 37.3449C1.5579 37.3503 0.776239 37.309 0 37.2212C4.50427 39.8542 9.7358 41.2521 15.078 41.25Z" fill="#777777"/>
</g>
<defs>
<clipPath id="clip0_32_494">
<rect width="48" height="44" fill="white"/>
</clipPath>
</defs>
</svg>
